<svg xmlns="http://www.w3.org/2000/svg" viewBox="0 0 800 600" width="800" height="600">
  <defs>
    <!-- 夜空渐变 -->
    <linearGradient id="skyGrad" x1="0" y1="0" x2="0" y2="1">
      <stop offset="0%" stop-color="#0a0e2a"/>
      <stop offset="40%" stop-color="#141846"/>
      <stop offset="70%" stop-color="#1a2a5a"/>
      <stop offset="100%" stop-color="#2a3a6a"/>
    </linearGradient>

    <!-- 水面渐变 -->
    <linearGradient id="waterGrad" x1="0" y1="0" x2="0" y2="1">
      <stop offset="0%" stop-color="#1a4a7a" stop-opacity="0.8"/>
      <stop offset="50%" stop-color="#0e3a6a" stop-opacity="0.9"/>
      <stop offset="100%" stop-color="#062a50" stop-opacity="1"/>
    </linearGradient>

    <!-- 月亮光晕 -->
    <radialGradient id="moonGlow" cx="50%" cy="50%" r="50%">
      <stop offset="0%" stop-color="#fffde8" stop-opacity="1"/>
      <stop offset="60%" stop-color="#ffeebb" stop-opacity="0.6"/>
      <stop offset="100%" stop-color="#ffeebb" stop-opacity="0"/>
    </radialGradient>

    <!-- 水面光反射 -->
    <linearGradient id="reflection" x1="0" y1="0" x2="1" y2="0">
      <stop offset="0%" stop-color="#ffeebb" stop-opacity="0"/>
      <stop offset="30%" stop-color="#ffeebb" stop-opacity="0.3"/>
      <stop offset="50%" stop-color="#fffde8" stop-opacity="0.5"/>
      <stop offset="70%" stop-color="#ffeebb" stop-opacity="0.3"/>
      <stop offset="100%" stop-color="#ffeebb" stop-opacity="0"/>
    </linearGradient>

    <!-- 流水渐变 -->
    <linearGradient id="flowGrad" x1="0" y1="0" x2="1" y2="0">
      <stop offset="0%" stop-color="#4ac0ff" stop-opacity="0"/>
      <stop offset="30%" stop-color="#4ac0ff" stop-opacity="0.45"/>
      <stop offset="50%" stop-color="#7ad8ff" stop-opacity="0.6"/>
      <stop offset="70%" stop-color="#4ac0ff" stop-opacity="0.45"/>
      <stop offset="100%" stop-color="#4ac0ff" stop-opacity="0"/>
    </linearGradient>

    <!-- 星芒滤镜 -->
    <filter id="starGlow" x="-200%" y="-200%" width="500%" height="500%">
      <feGaussianBlur stdDeviation="3" result="blur"/>
      <feMerge>
        <feMergeNode in="blur"/>
        <feMergeNode in="SourceGraphic"/>
      </feMerge>
    </filter>

    <!-- 发光滤镜 -->
    <filter id="softGlow" x="-50%" y="-50%" width="200%" height="200%">
      <feGaussianBlur stdDeviation="6" result="blur"/>
      <feMerge>
        <feMergeNode in="blur"/>
        <feMergeNode in="SourceGraphic"/>
      </feMerge>
    </filter>

    <!-- 月亮滤镜 -->
    <filter id="moonFilter" x="-100%" y="-100%" width="300%" height="300%">
      <feGaussianBlur stdDeviation="15" result="blur"/>
      <feMerge>
        <feMergeNode in="blur"/>
        <feMergeNode in="SourceGraphic"/>
      </feMerge>
    </filter>

    <!-- 星空闪烁动画 -->
    <g id="star1">
      <circle cx="0" cy="0" r="1.5" fill="#ffffff">
        <animate attributeName="opacity" values="0.3;1;0.3" dur="2s" repeatCount="indefinite"/>
      </circle>
    </g>
    <g id="star2">
      <circle cx="0" cy="0" r="2" fill="#ffffff">
        <animate attributeName="opacity" values="0.2;0.9;0.2" dur="3.5s" repeatCount="indefinite"/>
      </circle>
    </g>
    <g id="star3">
      <circle cx="0" cy="0" r="1" fill="#ffffff" filter="url(#starGlow)">
        <animate attributeName="opacity" values="0.5;1;0.5" dur="1.5s" repeatCount="indefinite"/>
      </circle>
    </g>

    <!-- 萤火虫 -->
    <g id="firefly">
      <circle cx="0" cy="0" r="2" fill="#aaffaa" filter="url(#starGlow)">
        <animate attributeName="opacity" values="0;0.8;0" dur="3s" repeatCount="indefinite"/>
        <animate attributeName="r" values="1;3;1" dur="3s" repeatCount="indefinite"/>
      </circle>
    </g>

    <!-- 飘落花瓣 -->
    <g id="petal">
      <ellipse cx="0" cy="0" rx="4" ry="2.5" fill="#ffb7c5" opacity="0.7" transform="rotate(-15)"/>
    </g>
  </defs>

  <!-- ===== 夜空背景 ===== -->
  <rect width="800" height="600" fill="url(#skyGrad)"/>

  <!-- ===== 极光效果 ===== -->
  <g opacity="0.15">
    <path d="M0,80 Q100,40 200,90 Q300,130 400,70 Q500,20 600,80 Q700,130 800,60 L800,0 L0,0 Z" fill="#7af0ff">
      <animate attributeName="opacity" values="0.1;0.25;0.1" dur="8s" repeatCount="indefinite"/>
      <animateTransform attributeName="transform" type="translate" values="0,0;20,-10;0,0" dur="12s" repeatCount="indefinite"/>
    </path>
    <path d="M0,120 Q150,60 300,130 Q450,180 600,100 Q700,50 800,110 L800,0 L0,0 Z" fill="#a080ff">
      <animate attributeName="opacity" values="0.08;0.2;0.08" dur="10s" repeatCount="indefinite"/>
      <animateTransform attributeName="transform" type="translate" values="0,0;-15,-8;0,0" dur="15s" repeatCount="indefinite"/>
    </path>
  </g>

  <!-- ===== 星空 ===== -->
  <!-- 大星（带星芒） -->
  <g filter="url(#starGlow)">
    <use href="#star2" x="120" y="45"/>
    <use href="#star2" x="350" y="80"/>
    <use href="#star2" x="580" y="35"/>
    <use href="#star2" x="680" y="95"/>
    <use href="#star2" x="200" y="120"/>
    <use href="#star2" x="500" y="55"/>
  </g>

  <!-- 中星 -->
  <use href="#star1" x="60" y="90"/>
  <use href="#star1" x="160" y="30"/>
  <use href="#star1" x="250" y="65"/>
  <use href="#star1" x="420" y="25"/>
  <use href="#star1" x="480" y="90"/>
  <use href="#star1" x="620" y="60"/>
  <use href="#star1" x="750" y="40"/>
  <use href="#star1" x="55" y="160"/>
  <use href="#star1" x="720" y="150"/>
  <use href="#star1" x="320" y="140"/>
  <use href="#star1" x="600" y="130"/>

  <!-- 小星（发光闪烁） -->
  <use href="#star3" x="90" y="65"/>
  <use href="#star3" x="300" y="35"/>
  <use href="#star3" x="530" y="70"/>
  <use href="#star3" x="450" y="45"/>
  <use href="#star3" x="700" y="20"/>
  <use href="#star3" x="180" y="95"/>
  <use href="#star3" x="380" y="110"/>
  <use href="#star3" x="650" y="100"/>
  <use href="#star3" x="770" y="75"/>

  <!-- 散布的小星点（静态） -->
  <g fill="#ffffff" opacity="0.4">
    <circle cx="30" cy="50" r="0.8"/>
    <circle cx="140" cy="110" r="0.6"/>
    <circle cx="230" cy="20" r="0.7"/>
    <circle cx="280" cy="100" r="0.5"/>
    <circle cx="360" cy="60" r="0.8"/>
    <circle cx="410" cy="120" r="0.6"/>
    <circle cx="490" cy="30" r="0.7"/>
    <circle cx="550" cy="110" r="0.5"/>
    <circle cx="640" cy="25" r="0.8"/>
    <circle cx="670" cy="140" r="0.6"/>
    <circle cx="760" cy="110" r="0.7"/>
    <circle cx="100" cy="180" r="0.5"/>
    <circle cx="780" cy="130" r="0.6"/>
    <circle cx="45" cy="130" r="0.5"/>
  </g>

  <!-- ===== 月亮 ===== -->
  <g transform="translate(620, 100)">
    <!-- 月光晕 -->
    <circle cx="0" cy="0" r="60" fill="url(#moonGlow)" filter="url(#moonFilter)">
      <animate attributeName="r" values="55;65;55" dur="6s" repeatCount="indefinite"/>
    </circle>
    <!-- 月轮 -->
    <circle cx="0" cy="0" r="30" fill="#fffde8" filter="url(#softGlow)"/>
    <!-- 月面纹理 -->
    <circle cx="-8" cy="-5" r="5" fill="#f0e8c0" opacity="0.4"/>
    <circle cx="10" cy="8" r="3" fill="#f0e8c0" opacity="0.3"/>
    <circle cx="-5" cy="12" r="2.5" fill="#f0e8c0" opacity="0.25"/>
  </g>

  <!-- ===== 远山 ===== -->
  <g opacity="0.35">
    <path d="M0,420 Q80,350 150,390 Q220,340 300,380 Q380,330 450,370 Q520,340 600,380 Q680,350 800,400 L800,600 L0,600 Z" fill="#0e1a3a"/>
    <path d="M0,450 Q100,390 200,420 Q280,370 360,410 Q440,380 540,420 Q640,390 800,440 L800,600 L0,600 Z" fill="#121e42"/>
  </g>

  <!-- ===== 月下树影（左侧） ===== -->
  <g opacity="0.3">
    <!-- 大树干 -->
    <path d="M100,460 Q105,420 110,390 Q115,420 120,460" fill="#1a2a3a"/>
    <!-- 树冠 -->
    <ellipse cx="110" cy="380" rx="40" ry="35" fill="#0e1a32"/>
    <ellipse cx="90" cy="390" rx="25" ry="20" fill="#0e1a32"/>
    <ellipse cx="135" cy="390" rx="20" ry="18" fill="#0e1a32"/>
  </g>

  <!-- ===== 右侧树影 ===== -->
  <g opacity="0.25">
    <path d="M700,470 Q705,440 710,410 Q715,440 720,470" fill="#1a2a3a"/>
    <ellipse cx="710" cy="400" rx="35" ry="30" fill="#0e1a32"/>
    <ellipse cx="690" cy="410" rx="20" ry="18" fill="#0e1a32"/>
    <ellipse cx="735" cy="408" rx="18" ry="16" fill="#0e1a32"/>
  </g>

  <!-- ===== 水面（带动画波动的整个水面） ===== -->
  <g>
    <path fill="url(#waterGrad)">
      <animate attributeName="d" values="
        M0,460 Q100,435 200,455 Q300,445 400,460 Q500,445 600,460 Q700,440 800,455 L800,600 L0,600 Z;
        M0,455 Q100,445 200,435 Q300,460 400,445 Q500,460 600,445 Q700,455 800,450 L800,600 L0,600 Z;
        M0,460 Q100,440 200,450 Q300,448 400,455 Q500,450 600,455 Q700,445 800,450 L800,600 L0,600 Z;
        M0,455 Q100,450 200,440 Q300,455 400,448 Q500,445 600,460 Q700,440 800,455 L800,600 L0,600 Z;
        M0,460 Q100,435 200,455 Q300,445 400,460 Q500,445 600,460 Q700,440 800,455 L800,600 L0,600 Z"
        dur="6s" repeatCount="indefinite"/>
    </path>
  </g>

  <!-- ===== 水面月光倒影 ===== -->
  <ellipse cx="620" cy="500" rx="80" ry="12" fill="url(#reflection)" opacity="0.5">
    <animate attributeName="ry" values="8;18;8" dur="2s" repeatCount="indefinite"/>
    <animate attributeName="opacity" values="0.35;0.65;0.35" dur="2.5s" repeatCount="indefinite"/>
    <animateTransform attributeName="transform" type="translate" values="0,0;-3,2;0,0" dur="3s" repeatCount="indefinite"/>
  </ellipse>
  <ellipse cx="620" cy="520" rx="55" ry="7" fill="url(#reflection)" opacity="0.3">
    <animate attributeName="ry" values="5;12;5" dur="3s" repeatCount="indefinite" begin="0.5s"/>
    <animateTransform attributeName="transform" type="translate" values="0,0;4,-2;0,0" dur="4s" repeatCount="indefinite"/>
  </ellipse>

  <!-- ===== 流水效果（大幅波动 + 横向流动） ===== -->
  <g fill="none" stroke-linecap="round">

    <!-- 流水层1：主波形 - 大幅上下摆动 + 横向漂移 -->
    <path stroke="#5ad8ff" stroke-width="3" opacity="0.65">
      <animate attributeName="d" values="
        M0,475 Q80,455 160,478 Q240,500 320,475 Q400,450 480,478 Q560,505 640,478 Q720,450 800,475;
        M0,478 Q80,505 160,475 Q240,450 320,478 Q400,505 480,475 Q560,450 640,478 Q720,505 800,478;
        M0,475 Q80,455 160,478 Q240,500 320,475 Q400,450 480,478 Q560,505 640,478 Q720,450 800,475"
        dur="3.5s" repeatCount="indefinite"/>
    </path>

    <!-- 流水层2 - 相位错开，大幅摆动 -->
    <path stroke="#4ac0ff" stroke-width="2.5" opacity="0.55">
      <animate attributeName="d" values="
        M0,490 Q90,510 180,488 Q270,465 360,490 Q450,515 540,488 Q630,462 720,490 Q760,505 800,492;
        M0,493 Q90,465 180,492 Q270,518 360,493 Q450,465 540,493 Q630,518 720,493 Q760,480 800,493;
        M0,490 Q90,510 180,488 Q270,465 360,490 Q450,515 540,488 Q630,462 720,490 Q760,505 800,492"
        dur="4s" repeatCount="indefinite"/>
    </path>

    <!-- 流水层3 - 密集波形 -->
    <path stroke="#7ad8ff" stroke-width="2" opacity="0.5">
      <animate attributeName="d" values="
        M0,505 Q60,485 120,508 Q180,530 240,505 Q300,480 360,508 Q420,535 480,505 Q540,480 600,508 Q660,535 720,505 Q760,490 800,508;
        M0,508 Q60,530 120,505 Q180,480 240,508 Q300,535 360,505 Q420,480 480,508 Q540,535 600,505 Q660,480 720,508 Q760,525 800,505;
        M0,505 Q60,485 120,508 Q180,530 240,505 Q300,480 360,508 Q420,535 480,505 Q540,480 600,508 Q660,535 720,505 Q760,490 800,508"
        dur="3s" repeatCount="indefinite"/>
    </path>

    <!-- 流水层4：底部大浪 -->
    <path stroke="#3a9acc" stroke-width="3" opacity="0.35">
      <animate attributeName="d" values="
        M0,535 Q120,515 240,538 Q360,560 480,535 Q600,510 720,538 Q760,550 800,535;
        M0,538 Q120,560 240,535 Q360,510 480,538 Q600,565 720,535 Q760,520 800,538;
        M0,535 Q120,515 240,538 Q360,560 480,535 Q600,510 720,538 Q760,550 800,535"
        dur="5s" repeatCount="indefinite"/>
    </path>

    <!-- ===== 横向流动线条（模拟水流方向） ===== -->
    <!-- 流动线1 -->
    <path d="M-50,478 Q50,470 150,480 Q250,490 350,478" stroke="#7ad8ff" stroke-width="1.5" opacity="0.35" stroke-dasharray="8,12">
      <animate attributeName="stroke-dashoffset" values="0;-60" dur="1.5s" repeatCount="indefinite"/>
      <animate attributeName="d" values="
        M-50,478 Q50,470 150,480 Q250,490 350,478;
        M-50,480 Q50,473 150,482 Q250,488 350,480;
        M-50,478 Q50,470 150,480 Q250,490 350,478"
        dur="3s" repeatCount="indefinite"/>
    </path>

    <!-- 流动线2 -->
    <path d="M400,488 Q500,478 600,490 Q700,502 850,488" stroke="#7ad8ff" stroke-width="1.5" opacity="0.35" stroke-dasharray="6,14">
      <animate attributeName="stroke-dashoffset" values="0;-50" dur="1.8s" repeatCount="indefinite"/>
      <animate attributeName="d" values="
        M400,488 Q500,478 600,490 Q700,502 850,488;
        M400,490 Q500,482 600,492 Q700,500 850,490;
        M400,488 Q500,478 600,490 Q700,502 850,488"
        dur="3.5s" repeatCount="indefinite"/>
    </path>

    <!-- 流动线3 -->
    <path d="M-50,510 Q80,498 210,512 Q340,526 470,510" stroke="#8ae0ff" stroke-width="1.2" opacity="0.3" stroke-dasharray="5,10">
      <animate attributeName="stroke-dashoffset" values="0;-45" dur="1.2s" repeatCount="indefinite"/>
      <animate attributeName="d" values="
        M-50,510 Q80,498 210,512 Q340,526 470,510;
        M-50,513 Q80,502 210,515 Q340,524 470,513;
        M-50,510 Q80,498 210,512 Q340,526 470,510"
        dur="4s" repeatCount="indefinite"/>
    </path>

    <!-- 流动线4 -->
    <path d="M350,520 Q480,508 610,522 Q740,536 850,520" stroke="#8ae0ff" stroke-width="1.2" opacity="0.3" stroke-dasharray="7,11">
      <animate attributeName="stroke-dashoffset" values="0;-54" dur="1.6s" repeatCount="indefinite"/>
      <animate attributeName="d" values="
        M350,520 Q480,508 610,522 Q740,536 850,520;
        M350,523 Q480,512 610,525 Q740,534 850,523;
        M350,520 Q480,508 610,522 Q740,536 850,520"
        dur="4.5s" repeatCount="indefinite"/>
    </path>

    <!-- 浪花白沫（波峰高光） -->
    <path d="M160,472 Q180,466 200,472" stroke="#c0f0ff" stroke-width="1.5" opacity="0.4" fill="none">
      <animate attributeName="opacity" values="0.2;0.5;0.2" dur="1.8s" repeatCount="indefinite"/>
    </path>
    <path d="M320,468 Q340,462 360,468" stroke="#c0f0ff" stroke-width="1.5" opacity="0.4" fill="none">
      <animate attributeName="opacity" values="0.15;0.45;0.15" dur="2s" repeatCount="indefinite" begin="0.5s"/>
    </path>
    <path d="M480,472 Q500,465 520,472" stroke="#c0f0ff" stroke-width="1.5" opacity="0.35" fill="none">
      <animate attributeName="opacity" values="0.2;0.5;0.2" dur="2.2s" repeatCount="indefinite" begin="1s"/>
    </path>
    <path d="M640,470 Q660,463 680,470" stroke="#c0f0ff" stroke-width="1.5" opacity="0.35" fill="none">
      <animate attributeName="opacity" values="0.15;0.4;0.15" dur="1.9s" repeatCount="indefinite" begin="0.8s"/>
    </path>
  </g>

  <!-- ===== 水纹涟漪 ===== -->
  <g fill="none" stroke="#7ad8ff" stroke-width="0.8" opacity="0.2">
    <ellipse cx="300" cy="510" rx="15" ry="4">
      <animate attributeName="rx" values="5;25;5" dur="4s" repeatCount="indefinite"/>
      <animate attributeName="ry" values="1;6;1" dur="4s" repeatCount="indefinite"/>
      <animate attributeName="opacity" values="0.4;0;0.4" dur="4s" repeatCount="indefinite"/>
    </ellipse>
    <ellipse cx="550" cy="530" rx="12" ry="3">
      <animate attributeName="rx" values="4;20;4" dur="5s" repeatCount="indefinite" begin="2s"/>
      <animate attributeName="ry" values="1;5;1" dur="5s" repeatCount="indefinite" begin="2s"/>
      <animate attributeName="opacity" values="0.3;0;0.3" dur="5s" repeatCount="indefinite" begin="2s"/>
    </ellipse>
  </g>

  <!-- ===== 水面闪烁星光 ===== -->
  <g fill="#ffffff" opacity="0.4">
    <circle cx="150" cy="490" r="1.5">
      <animate attributeName="opacity" values="0;0.8;0" dur="2s" repeatCount="indefinite" begin="0.5s"/>
    </circle>
    <circle cx="350" cy="505" r="1">
      <animate attributeName="opacity" values="0;0.6;0" dur="2.5s" repeatCount="indefinite" begin="1s"/>
    </circle>
    <circle cx="500" cy="495" r="1.5">
      <animate attributeName="opacity" values="0;0.7;0" dur="3s" repeatCount="indefinite" begin="0.3s"/>
    </circle>
    <circle cx="680" cy="510" r="1">
      <animate attributeName="opacity" values="0;0.5;0" dur="2.8s" repeatCount="indefinite" begin="1.5s"/>
    </circle>
  </g>

  <!-- ===== 小舟 ===== -->
  <g transform="translate(300, 478)">
    <animateTransform attributeName="transform" type="translate" values="300,478;310,476;300,478" dur="5s" repeatCount="indefinite"/>
    <!-- 船身 -->
    <path d="M-20,0 Q-18,6 0,8 Q18,6 20,0 Z" fill="#2a1a0a" opacity="0.7"/>
    <!-- 船篷 -->
    <path d="M-8,-2 Q-6,-10 0,-12 Q6,-10 8,-2 Z" fill="#3a2a1a" opacity="0.6"/>
    <!-- 桅杆 -->
    <line x1="0" y1="-12" x2="0" y2="-28" stroke="#3a2a1a" stroke-width="0.8" opacity="0.5"/>
    <!-- 帆 -->
    <path d="M0,-26 L12,-18 L0,-14 Z" fill="#c8b898" opacity="0.3"/>
  </g>

  <!-- ===== 飘落的花瓣 ===== -->
  <g>
    <use href="#petal" x="200" y="300">
      <animateTransform attributeName="transform" type="translate" values="200,300;180,420;160,500" dur="8s" repeatCount="indefinite"/>
      <animate attributeName="opacity" values="0.7;0.4;0" dur="8s" repeatCount="indefinite"/>
    </use>
    <use href="#petal" x="450" y="280">
      <animateTransform attributeName="transform" type="translate" values="450,280;470,400;490,520" dur="10s" repeatCount="indefinite" begin="3s"/>
      <animate attributeName="opacity" values="0.6;0.3;0" dur="10s" repeatCount="indefinite" begin="3s"/>
    </use>
    <use href="#petal" x="350" y="350">
      <animateTransform attributeName="transform" type="translate" values="350,350;330,440;310,530" dur="9s" repeatCount="indefinite" begin="5s"/>
      <animate attributeName="opacity" values="0.5;0.3;0" dur="9s" repeatCount="indefinite" begin="5s"/>
    </use>
  </g>

  <!-- ===== 萤火虫 ===== -->
  <g>
    <use href="#firefly" x="150" y="350">
      <animateTransform attributeName="transform" type="translate" values="150,350;180,330;200,360;170,340;150,350" dur="6s" repeatCount="indefinite"/>
    </use>
    <use href="#firefly" x="500" y="380">
      <animateTransform attributeName="transform" type="translate" values="500,380;480,360;510,340;530,370;500,380" dur="7s" repeatCount="indefinite" begin="2s"/>
    </use>
    <use href="#firefly" x="650" y="320">
      <animateTransform attributeName="transform" type="translate" values="650,320;670,300;660,340;640,320;650,320" dur="5s" repeatCount="indefinite" begin="4s"/>
    </use>
    <use href="#firefly" x="80" y="400">
      <animateTransform attributeName="transform" type="translate" values="80,400;100,380;120,410;95,395;80,400" dur="8s" repeatCount="indefinite" begin="1s"/>
    </use>
  </g>

  <!-- ===== 岸边草丛（左） ===== -->
  <g fill="#1a3a2a" opacity="0.5">
    <path d="M0,460 L8,430 L12,460 Z"/>
    <path d="M15,460 L25,425 L30,460 Z"/>
    <path d="M35,460 L40,435 L48,460 Z"/>
    <path d="M50,460 L60,440 L65,460 Z"/>
    <path d="M65,460 L70,432 L78,460 Z"/>
  </g>

  <!-- ===== 岸边草丛（右） ===== -->
  <g fill="#1a3a2a" opacity="0.45">
    <path d="M720,460 L728,438 L732,460 Z"/>
    <path d="M735,460 L742,425 L748,460 Z"/>
    <path d="M750,460 L758,435 L765,460 Z"/>
    <path d="M768,460 L775,440 L780,460 Z"/>
  </g>

  <!-- ===== 左下角诗句 ===== -->
  <g font-family="'SimSun', 'Noto Serif CJK SC', 'Microsoft YaHei', serif" text-anchor="middle" opacity="0.45">
    <text x="160" y="575" font-size="14" fill="#aac8ff" letter-spacing="3">星 垂 平 野 阔</text>
    <text x="160" y="592" font-size="12" fill="#8ab0e0" letter-spacing="2">月 涌 大 江 流</text>
  </g>

  <!-- ===== 右上角印章 ===== -->
  <g transform="translate(730, 530)" opacity="0.3">
    <rect x="-25" y="-25" width="50" height="50" rx="3" fill="none" stroke="#cc4444" stroke-width="1.5"/>
    <text x="0" y="-2" font-family="'SimSun', serif" font-size="16" fill="#cc4444" text-anchor="middle">夜</text>
    <text x="0" y="15" font-family="'SimSun', serif" font-size="16" fill="#cc4444" text-anchor="middle">泊</text>
  </g>

  <!-- ===== 流星 ===== -->
  <g opacity="0">
    <line x1="100" y1="50" x2="200" y2="150" stroke="url(#flowGrad)" stroke-width="1.5">
      <animate attributeName="opacity" values="0;0.8;0" dur="3s" begin="5s" repeatCount="indefinite"/>
    </line>
  </g>
  <g opacity="0">
    <line x1="400" y1="30" x2="480" y2="110" stroke="url(#flowGrad)" stroke-width="1">
      <animate attributeName="opacity" values="0;0.6;0" dur="2.5s" begin="10s" repeatCount="indefinite"/>
    </line>
  </g>
</svg>
